PathFileType	4	(X/Y/Z)	Kaydara	
DataRate	CameraRate	NumFrames	NumMarkers	Units	OrigDataRate	OrigDataStartFrame	OrigNumFrames	
120.00	120.00	4	72	mm	120.00	235	268	
Frame#	Time	Hips			RightUpLeg			RightLeg			RightFoot			RightFoot_End			LeftUpLeg			LeftLeg			LeftFoot			LeftFoot_End			Spine			Spine1			Spine2			Spine3			Neck			Head			Head_End			RightShoulder			RightArm			RightForeArm			RightHand			RightHandThumb1			RightHandThumb2			RightHandThumb3			RightHandThumb3_End			RightInHandIndex			RightHandIndex1			RightHandIndex2			RightHandIndex3			RightHandIndex3_End			RightInHandMiddle			RightHandMiddle1			RightHandMiddle2			RightHandMiddle3			RightHandMiddle3_End			RightInHandRing			RightHandRing1			RightHandRing2			RightHandRing3			RightHandRing3_End			RightInHandPinky			RightHandPinky1			RightHandPinky2			RightHandPinky3			RightHandPinky3_End			LeftShoulder			LeftArm			LeftForeArm			LeftHand			LeftHandThumb1			LeftHandThumb2			LeftHandThumb3			LeftHandThumb3_End			LeftInHandIndex			LeftHandIndex1			LeftHandIndex2			LeftHandIndex3			LeftHandIndex3_End			LeftInHandMiddle			LeftHandMiddle1			LeftHandMiddle2			LeftHandMiddle3			LeftHandMiddle3_End			LeftInHandRing			LeftHandRing1			LeftHandRing2			LeftHandRing3			LeftHandRing3_End			LeftInHandPinky			LeftHandPinky1			LeftHandPinky2			LeftHandPinky3			LeftHandPinky3_End			
		X1	Y1	Z1	X2	Y2	Z2	X3	Y3	Z3	X4	Y4	Z4	X5	Y5	Z5	X6	Y6	Z6	X7	Y7	Z7	X8	Y8	Z8	X9	Y9	Z9	X10	Y10	Z10	X11	Y11	Z11	X12	Y12	Z12	X13	Y13	Z13	X14	Y14	Z14	X15	Y15	Z15	X16	Y16	Z16	X17	Y17	Z17	X18	Y18	Z18	X19	Y19	Z19	X20	Y20	Z20	X21	Y21	Z21	X22	Y22	Z22	X23	Y23	Z23	X24	Y24	Z24	X25	Y25	Z25	X26	Y26	Z26	X27	Y27	Z27	X28	Y28	Z28	X29	Y29	Z29	X30	Y30	Z30	X31	Y31	Z31	X32	Y32	Z32	X33	Y33	Z33	X34	Y34	Z34	X35	Y35	Z35	X36	Y36	Z36	X37	Y37	Z37	X38	Y38	Z38	X39	Y39	Z39	X40	Y40	Z40	X41	Y41	Z41	X42	Y42	Z42	X43	Y43	Z43	X44	Y44	Z44	X45	Y45	Z45	X46	Y46	Z46	X47	Y47	Z47	X48	Y48	Z48	X49	Y49	Z49	X50	Y50	Z50	X51	Y51	Z51	X52	Y52	Z52	X53	Y53	Z53	X54	Y54	Z54	X55	Y55	Z55	X56	Y56	Z56	X57	Y57	Z57	X58	Y58	Z58	X59	Y59	Z59	X60	Y60	Z60	X61	Y61	Z61	X62	Y62	Z62	X63	Y63	Z63	X64	Y64	Z64	X65	Y65	Z65	X66	Y66	Z66	X67	Y67	Z67	X68	Y68	Z68	X69	Y69	Z69	X70	Y70	Z70	X71	Y71	Z71	X72	Y72	Z72	

235	1.95	5446.805	859.65103	-201.189	5453.222252032986	833.0696015674907	-241.09049533898238	5406.784542669793	423.25072647367165	-272.9576460928861	5489.034487409437	86.19551200662868	-460.24112981290034	5525.37114031123	-32.62719227944769	-348.38199233774935	5445.0840829543795	857.1277757646155	-147.64987123310166	5312.198614964207	470.01243544093563	-59.42317628019545	5225.632938007557	91.92989495525428	89.97064502102647	5288.4488888851365	31.058965879551096	256.5782231277941	5425.831581357851	988.4377529003111	-258.350197071593	5382.484368687647	1066.6715993505632	-296.5049423142805	5331.587331250681	1145.3612993166953	-335.12160991563724	5274.0316368893955	1215.1862365639176	-370.65529451041317	5211.550695263128	1290.2090580620222	-403.0986614808026	5171.69708351558	1366.5101800069742	-361.26835356226775	5158.279352796026	1465.5067485299492	-238.36993617083866	5226.937728592654	1262.3858382767821	-398.6734626041796	5209.277231826024	1245.2092630655077	-404.54410190492325	5285.808599066383	1151.398346340006	-281.6958397726022	5266.914973088466	1172.3353308495543	-246.14998852514867	5254.621975100534	1209.0851778197516	-223.98581270614213	5259.299898389015	1230.6860068399174	-208.11005202466998	5264.652993251035	1241.3411521991388	-198.62617281596877	5270.90819516052	1246.4703414616658	-192.06468220447348	5259.793832553916	1197.3767012129108	-227.10252258445882	5261.9309372266225	1216.564568476985	-205.92351218166243	5269.890534756141	1226.45384998759	-193.775463550852	5276.518999640643	1232.7860800819983	-188.00781272862932	5283.138581794778	1238.1514286419733	-184.4378232013869	5265.726224390029	1184.6104467610385	-232.23839723921196	5271.01768175724	1196.421434617487	-214.35828705723745	5280.487102735415	1205.4615565298786	-201.85194774908595	5288.860284967847	1212.2608912838868	-195.25320546469555	5296.286185638619	1217.7230645849504	-191.52186592648766	5269.811326397343	1175.1117495600893	-236.38710817644915	5277.94873057726	1177.4813443224734	-223.90511329407306	5286.995788130778	1183.5522759061123	-213.7991136673766	5295.493772628557	1189.150368926816	-207.85606886509436	5302.675677848133	1193.8310754798076	-204.54763424620666	5274.864181140559	1163.5269128961663	-241.94175467902303	5285.270381516532	1158.5990564126873	-233.84300347818257	5293.717737361127	1160.6286004215801	-227.04469369879214	5300.498041010177	1163.3420240976354	-223.3358648078538	5307.194895844697	1166.7000013806946	-220.76542514632948	5237.713057823547	1269.5128632991598	-386.8527742637778	5267.872214585797	1270.964239463761	-367.6498985324428	5300.923265474931	1172.7859889639735	-336.5127410120407	5277.340392200702	1155.255447131306	-290.9294732318774	5295.506662648875	1183.0247471849248	-265.8694696894482	5304.3832145233855	1184.1575648002338	-251.230740748839	5309.712805984116	1181.730374068588	-244.07325079297107	5313.426957430727	1176.9556505030637	-240.70437628503353	5295.097256332894	1176.126520109948	-274.0214586634899	5314.837903689637	1187.0737559671707	-261.33087350815714	5323.35036906084	1183.5666692510129	-254.82496254587798	5324.936768298497	1177.0499463901551	-250.56760065011815	5323.7501515279955	1168.731037304754	-246.90035358734855	5291.844403136711	1166.4694555748563	-282.833650027669	5309.3408582198335	1171.9267259211554	-275.2214855243526	5318.129888251654	1166.7761654828196	-269.329060683347	5319.80398475369	1158.2787923161761	-264.77182781402223	5318.389015021153	1148.8676067538493	-261.04072624858173	5289.093926384303	1159.461504164066	-289.3770175685114	5302.53705271403	1158.544273762095	-288.21673273233614	5309.658650925631	1152.6924950969926	-284.32642813317966	5310.987226021047	1143.7725135416356	-280.59207521200597	5309.521161241633	1134.5807297527654	-277.39735105128796	5284.946928088532	1150.325861165121	-297.33578406814115	5294.899165692583	1144.1718462092904	-301.1529382795039	5299.7020411543035	1137.363562562013	-299.9860416177179	5300.23583368083	1129.8306166341656	-298.204653682653	5298.686625844766	1121.0973280974074	-295.91704691010364
236	1.958	5446.805	859.65103	-201.189	5453.076164973067	833.6065805606037	-239.8114438545774	5406.959492507652	424.232281030309	-273.1609471754228	5486.888674889966	87.30851914692842	-459.7987301782747	5522.511334709558	-31.788624698641605	-349.83760400478684	5445.27253725481	856.6398829664757	-148.84632125286038	5312.267431536216	469.9070386156899	-59.14506871008131	5225.605228851578	92.1703740986687	91.51138018659331	5288.578853293529	31.338569837446332	257.97882612682184	5425.657114717894	988.190798033975	-258.78901016023667	5382.352159403555	1066.4572329132407	-296.8910953176631	5331.5193256819575	1145.2132179051982	-335.4019979437903	5274.067657467704	1215.170096696959	-370.760519836112	5211.815360914542	1290.4275968914149	-403.0020701646724	5172.451674647339	1367.1879470688325	-361.305097371959	5159.572279300879	1466.3343269486636	-238.55038064521847	5227.2225434909815	1263.020045311841	-398.11758102445236	5210.40452753473	1248.42668624686	-402.02600381482137	5293.111860072945	1157.7966447104063	-280.8353836806187	5279.575090596882	1185.691269009496	-247.10974598107097	5268.725344942387	1224.3057478697044	-224.364656264295	5274.883454593838	1246.71758632066	-208.68950659611494	5281.179287994133	1257.8152769951475	-199.46099928985396	5288.145074470118	1263.2088221531671	-193.21135010339862	5273.704888260196	1212.4283147381523	-227.7935152972637	5277.466357589588	1233.3290643534237	-206.84580356497074	5286.604681831029	1243.8859570046855	-195.12143747205457	5293.93817890388	1250.3120675068114	-189.64922982495708	5301.122576380487	1255.5384798647908	-186.34539080250514	5279.343522013324	1199.2450387317206	-233.24841968762857	5286.060428298393	1212.5013027718833	-215.76639996684474	5296.77210549844	1222.2086851074025	-203.76405559854922	5305.974783450359	1229.0918971439453	-197.54175264165238	5314.008437044621	1234.3877626834724	-194.11135129114191	5283.178889748738	1189.4128720353112	-237.61475714667404	5292.374818872859	1192.8024848044486	-225.67298825109782	5302.457452163397	1199.3900821558366	-216.0482601242911	5311.730496224033	1205.0346038275409	-210.49061878849386	5319.471969139472	1209.5426004079306	-207.4757085865412	5287.902706914348	1177.3557342163228	-243.42822530332364	5299.074960738135	1173.0891426019703	-235.9783436332009	5308.273351466097	1175.426645056181	-229.6285813915131	5315.581151174964	1178.1227702366298	-226.23142139055682	5322.751917341141	1181.2983093398775	-223.93858088290114	5237.729557583287	1269.1236219615948	-387.3258758716769	5267.617989366716	1268.82487135868	-371.03148072178374	5304.432091974456	1175.278702705248	-339.980141241728	5282.058499062604	1166.0915163681846	-292.62606776356586	5301.199342201937	1195.9473778541128	-268.27902257792294	5310.9820231085705	1198.4432929008028	-253.31168246491887	5316.83576159256	1196.8773445759264	-245.8704668323541	5320.895437867339	1192.7453032841272	-242.21811347652323	5300.48264382953	1189.0057383664375	-276.399780569122	5320.905430829141	1202.399628314428	-264.1140031644682	5329.965070951756	1200.1642525295883	-257.3551696108857	5331.965561447348	1194.0834669184012	-252.6604006317443	5331.17154448023	1185.8861371991895	-248.44213173352074	5296.918793674926	1179.0036363631968	-285.0232038471016	5314.912347967332	1186.6607915141913	-277.7039243893003	5324.2552970665165	1182.8439195252208	-271.50862244430897	5326.408269645771	1174.846573851051	-266.4107703941321	5325.41280720092	1165.55581968476	-262.07047779583314	5293.929891323351	1171.6937682282685	-291.4280272516037	5307.607747309528	1172.4985309928766	-290.425028174243	5315.167263077879	1167.7504909995052	-286.2427334562841	5316.933918195372	1159.2816471034275	-281.972039337963	5315.851001939619	1150.1883233762487	-278.19747505360067	5289.4985642388265	1162.1054962220571	-299.174813374344	5299.486668855448	1157.2670141195322	-303.02295669558885	5304.569179876301	1151.243429385313	-301.5778361687491	5305.38814900965	1143.9915904880465	-299.3837568875799	5304.158573318245	1135.3179233076487	-296.5701424932942
237	1.967	5446.805	859.65103	-201.189	5453.002227498426	834.1487642035262	-238.55259943307735	5407.1410407138255	425.22958891636665	-273.3501103942099	5484.836846637187	88.39138623361548	-459.2581522794743	5519.626528234202	-30.922361714699953	-351.0901667183534	5445.3960878941425	856.1464000321181	-150.02599770466506	5312.31798531929	469.7850618658458	-58.84945443690655	5225.59610393983	92.3723263582658	93.03599065276177	5288.745791661034	31.580848774579096	259.3588601392525	5425.446572017932	987.9451475616278	-259.2116599817206	5382.181269319074	1066.2385633849894	-297.26558591466903	5331.413390353957	1145.0540390952874	-335.67870657028783	5274.0714834341825	1215.1346907394902	-370.87519309621905	5212.051325712774	1290.612369676509	-402.9351666284321	5173.148543679117	1367.8175539158226	-361.4106601691782	5160.777323533812	1467.1014794669316	-238.80565527283707	5227.511423847251	1263.625957193751	-397.61348787341325	5211.676393291655	1251.5869004599551	-399.69530964539945	5300.466117052409	1163.9168685696854	-280.3789135883468	5292.387014694254	1198.5584296894765	-248.7044861701861	5283.0484809450745	1238.930162719024	-225.5083552591166	5290.649078492589	1262.1025148310625	-210.14597415875093	5297.85283014905	1273.6184715903034	-201.23829510990274	5305.492844057735	1279.265444851656	-195.34423360837016	5287.82023032006	1226.9090620129805	-229.21557680981684	5293.215528869032	1249.4544332692865	-208.6006284469804	5303.4911145936385	1260.65217499964	-197.37244982495216	5311.483733566064	1267.1633417218266	-192.24423347050976	5319.181367190026	1272.248784688572	-189.2490700724593	5293.139191439206	1213.3417344734278	-234.95166305203207	5301.276774602846	1227.9945228172517	-217.9462269334259	5313.181951130183	1238.3445605283189	-206.5216741341034	5323.157051287041	1245.3032100474622	-200.73182878806324	5331.741201954016	1250.431615713341	-197.64765458120777	5296.706708556772	1203.200980490999	-239.50621652376813	5306.942428786894	1207.5880717056643	-228.14924954186006	5318.014556198981	1214.6756667438128	-219.06455323347984	5328.005704024787	1220.3610135127954	-213.94339620942756	5336.252007487537	1224.696419228366	-211.26319394840698	5301.076916584188	1190.7034026333079	-245.54231361019356	5312.984351662626	1187.0965094930457	-238.7596320011784	5322.891362391849	1189.7361765240921	-232.8966006741249	5330.682446851339	1192.4145697165397	-229.84407754817298	5338.277100951546	1195.4098789689567	-227.86284885913577	5237.683492267688	1268.7085242686342	-387.78953473526946	5267.149665985456	1266.600143969784	-374.2742696597209	5307.749844585545	1177.5766028885307	-343.58875735509935	5286.897407499512	1176.5797979647966	-294.5338802029314	5306.906544174921	1208.4537302174608	-271.0185078949451	5317.582190309412	1212.301952779477	-255.8435649973767	5323.960478457262	1211.5952118285393	-248.19470835334022	5328.374202059885	1208.10884353619	-244.3153020387697	5305.899058398507	1201.4768369799867	-279.08857724884456	5326.937145600366	1217.268014386226	-267.3332993953862	5336.540446187562	1216.2977630464718	-260.41438754659345	5338.973836500141	1210.6634291571854	-255.33979788894618	5338.602147873842	1202.606236093146	-250.6180804016021	5302.0546101438795	1191.1476378405875	-287.49684955369946	5320.496500937196	1200.9662230584042	-280.57877914805294	5330.393815889937	1198.4784143491706	-274.17802953929595	5333.050411042956	1190.9950109859458	-268.6071712321084	5332.507983178969	1181.8455909407878	-263.70883570525336	5298.850077259154	1183.5495316205831	-293.7411988137772	5312.737616263287	1186.0529495996645	-292.9732854653205	5320.739896337216	1182.4072990277602	-288.5797827657745	5322.9708685923615	1174.4044390966278	-283.8357681067074	5322.30374670023	1165.4299042519872	-279.5284144999848	5294.165681794058	1173.527842549698	-301.2477420366652	5304.184631373813	1169.9944571501646	-305.18057022294363	5309.557725122581	1164.7587788647468	-303.5151191430815	5310.684426384344	1157.800950201289	-300.95102955862507	5309.805368914004	1149.2061061562981	-297.65119550204406
238	1.975	5446.805	859.65103	-201.189	5452.995903493186	834.6915013311118	-237.3230686348351	5407.330240315101	426.2332033400555	-273.52540880629016	5482.8937468854	89.43763080908604	-458.6337178308915	5516.748720456618	-30.036115134239346	-352.1389878877772	5445.458302748025	855.6513063788382	-151.18072661073452	5312.35060616868	469.64826494973676	-58.54232343887438	5225.60658764312	92.5367606358294	94.53381729073328	5288.947519229672	31.788252225068028	260.7101112274726	5425.204447292184	987.7040236098128	-259.6135119087634	5381.9766272133365	1066.019729265893	-297.6228280829695	5331.274618881004	1144.8886293298501	-335.9454159230623	5274.04796500219	1215.085208127502	-370.9926175618944	5212.262236081236	1290.7682759985196	-402.8906730776478	5173.78940244963	1368.4017105191213	-361.5769361362566	5161.8946139623185	1467.8127250296188	-239.12877946286412	5227.8054482052785	1264.2044082383395	-397.1567610630944	5213.077764678814	1254.6698819493654	-397.5558041426588	5307.811844440382	1169.7220188575227	-280.3066317962139	5305.239228618942	1210.8473568709085	-250.86425896113022	5297.459617511354	1252.8531987313397	-227.34705066989585	5306.450264109436	1276.729938399962	-212.40037313630066	5314.518539580939	1288.637177439044	-203.8715483466592	5322.790722522573	1294.5254369202728	-198.36976432306494	5302.0119699978	1240.7157428161122	-231.29583838063795	5309.033230707265	1264.824837997463	-211.10434486966858	5320.394299633664	1276.6326286511412	-200.4341862075943	5328.994645474994	1283.2201172352545	-195.69178812882342	5337.150021558059	1288.1643859594924	-193.04220432375223	5306.990629616016	1226.8013080643072	-237.27274169691148	5316.53007140537	1242.7916914216394	-220.81051396199118	5329.569492607026	1253.7559444280637	-210.02560248304368	5340.253687019859	1260.7819741741425	-204.71597972775604	5349.326972048238	1265.7439016797443	-202.01710082444916	5310.276346234631	1216.3799364680133	-241.98462091356956	5321.5241226365415	1221.7354003352254	-231.24517960343815	5333.531307461212	1229.3035828207335	-222.74857315513108	5344.1779924353505	1235.0248390185523	-218.10686666892275	5352.870727830958	1239.1899304314427	-215.7966339423138	5314.273757667795	1203.4780418669507	-248.2055756009622	5326.880525699993	1200.5257380289368	-242.096656053145	5337.448330389032	1203.4605457048985	-236.7495691520235	5345.675014572847	1206.121742332663	-234.06853861830484	5353.640645889779	1208.941210076696	-232.4275772214128	5237.582453952939	1268.276831047235	-388.23440959051214	5266.485877464561	1264.317767097063	-377.3521504894229	5310.870907816543	1179.6739000459736	-347.2926264284032	5291.829036920771	1186.6515715323717	-296.61075428261677	5312.5939339264805	1220.4556378334878	-274.03095824157623	5324.13966633119	1225.6329069000305	-258.7673221843012	5331.037077083445	1225.7756966856227	-250.98680366950867	5335.809311211009	1222.9325141372512	-246.93784238674277	5311.315523380892	1213.4529096110055	-282.0332967745861	5332.89861877952	1231.5710966853628	-270.9250026807132	5343.03658232852	1231.8485467550365	-263.938254033307	5345.916086680698	1226.6672542533167	-258.5438514444239	5345.990350364966	1218.7674035349871	-253.37014881641076	5307.223395213392	1202.8182956319313	-290.20431985769613	5326.062855859542	1214.7414830320972	-283.7891176101203	5336.509339943662	1213.5668538135865	-277.2802944683804	5339.687717845013	1206.6068441641264	-271.307253199299	5339.625251614292	1197.6183141663753	-265.90641998779205	5303.827931587916	1194.9487722132815	-296.2694751144358	5317.900071885482	1199.1136665442816	-295.8111091541057	5326.345394142398	1196.5598511595965	-291.28775926293696	5329.060753503177	1189.0338391046669	-286.1368742856792	5328.835954004344	1180.1973086702826	-281.3480743309957	5298.923734272321	1184.5173817080008	-303.5118884619652	5308.969833421677	1182.2686141423983	-307.58255574703117	5314.64134445934	1177.817688108399	-305.75612370170296	5316.094099133584	1171.164356331151	-302.8676866971765	5315.591178572135	1162.6668319788616	-299.1254995319731
